<?xml version="1.0" encoding="utf-8"?><!-- Uploaded to: SVG Repo, www.svgrepo.com, Generator: SVG Repo Mixer Tools -->
<svg width="800px" height="800px" viewBox="0 0 24 24" xmlns="http://www.w3.org/2000/svg" id="translate" class="icon glyph"><path d="M20,2H4A2,2,0,0,0,2,4V16a2,2,0,0,0,2,2H7.59l3.7,3.71a1,1,0,0,0,1.42,0L16.41,18H20a2,2,0,0,0,2-2V4A2,2,0,0,0,20,2ZM16,9H14.93a8.33,8.33,0,0,1-1.43,3.74,3.43,3.43,0,0,0,.74.29A1,1,0,0,1,14,15l-.24,0A6.51,6.51,0,0,1,12,14.19a5.6,5.6,0,0,1-1.77.78L10,15a1,1,0,0,1-.24-2,3.81,3.81,0,0,0,.51-.17A6.75,6.75,0,0,1,9.14,11.5a1,1,0,0,1,1.72-1,5.07,5.07,0,0,0,1,1.11A6.09,6.09,0,0,0,12.9,9H8A1,1,0,0,1,8,7h3a1,1,0,0,1,2,0h3a1,1,0,0,1,0,2Z" style="fill:#231f20"></path></svg>